<?xml version="1.0" encoding="UTF-8"?> <svg xmlns="http://www.w3.org/2000/svg" width="922" height="173" viewBox="0 0 922 173" fill="none"><path d="M86.1627 146.269C119.219 146.269 146.017 119.472 146.017 86.416C146.017 53.3598 119.219 26.5616 86.1627 26.5616C53.1067 26.5618 26.3098 53.3599 26.3098 86.416C26.3101 119.472 53.1068 146.269 86.1627 146.269ZM86.1627 172.579C38.5767 172.578 0.000244449 134.002 0 86.416C0 38.8298 38.5765 0.25354 86.1627 0.253296C133.749 0.253296 172.325 38.8296 172.325 86.416C172.325 134.002 133.749 172.579 86.1627 172.579Z" fill="white"></path><path d="M125.654 87.3135C125.654 109.619 107.169 127.702 84.3676 127.702C84.3676 127.702 84.3676 109.619 84.3676 87.3135C84.3676 65.0074 84.3676 46.9247 84.3676 46.9247C107.169 46.9247 125.654 65.0074 125.654 87.3135Z" fill="white"></path><path d="M881.606 132.549C872.983 150.25 863.149 156.907 844.994 156.907C838.489 156.907 830.622 155.242 826.84 153.578L830.924 134.516C834.404 136.331 838.338 137.542 842.422 137.542C848.474 137.542 853.92 135.877 856.795 128.767L857.551 126.498L818.973 49.0377H846.053L871.319 103.199L896.432 49.0377H922L881.606 132.549Z" fill="white"></path><path d="M761.34 130.431C741.672 130.431 727.603 121.505 727.603 105.771C727.603 90.1884 741.37 82.4727 760.13 80.6572L791.9 77.7827V77.3288C791.9 71.2773 786.756 66.436 773.897 66.436C763.004 66.436 754.683 70.9747 752.263 77.1775L730.477 71.2773C735.47 56.9049 753.019 47.3737 774.956 47.3737C800.372 47.3737 815.35 57.51 815.35 77.4801V106.528C815.35 110.764 817.165 112.73 825.638 110.915V128.767C807.937 132.095 798.254 127.557 794.17 119.992C786.908 126.346 775.41 130.431 761.34 130.431ZM791.9 98.2067V93.9706L763.609 96.8451C755.288 97.6015 751.052 99.5683 751.052 104.863C751.052 110.007 756.347 112.73 765.727 112.73C778.133 112.73 791.9 107.435 791.9 98.2067Z" fill="white"></path><path d="M649.529 119.69V155.394H625.323V49.0378H649.529V58.1152C654.976 52.3662 665.112 47.3737 678.426 47.3737C705.658 47.3737 721.543 66.1335 721.543 88.9781C721.543 111.671 705.658 130.431 678.426 130.431C665.112 130.431 654.976 125.59 649.529 119.69ZM648.773 88.5242V89.4319C648.773 101.989 659.515 110.915 673.433 110.915C686.746 110.915 697.942 103.199 697.942 88.9781C697.942 74.7569 686.746 66.8899 673.433 66.8899C659.515 66.8899 648.773 75.9672 648.773 88.5242Z" fill="white"></path><path d="M522.936 128.767V49.0378H547.142V58.7203C553.345 52.2149 563.33 47.3737 576.189 47.3737C596.916 47.3737 610.986 61.2922 610.986 83.3804V128.767H586.779V90.4909C586.779 77.0263 580.274 68.8567 567.868 68.8567C554.706 68.8567 547.142 76.875 547.142 90.6422V128.767H522.936Z" fill="white"></path><path d="M467.079 111.218C477.669 111.218 486.141 106.376 489.621 98.6605L510.952 106.376C505.203 120.446 488.108 130.431 467.23 130.431C438.939 130.431 419.12 113.638 419.12 88.8268C419.12 65.2257 438.939 47.3737 467.079 47.3737C495.672 47.3737 512.314 65.8309 512.314 88.5242V95.1809H442.721C445.444 105.317 454.673 111.218 467.079 111.218ZM466.322 66.1335C455.732 66.1335 446.655 70.9747 443.326 80.3546H487.956C486.897 73.6979 479.03 66.1335 466.322 66.1335Z" fill="white"></path><path d="M383.454 128.767H358.34L319.308 49.0377H346.237L371.502 103.048L396.616 49.0377H422.487L383.454 128.767Z" fill="white"></path><path d="M276.932 111.218C287.522 111.218 295.995 106.376 299.474 98.6605L320.806 106.376C315.057 120.446 297.961 130.431 277.083 130.431C248.792 130.431 228.974 113.638 228.974 88.8268C228.974 65.2257 248.792 47.3737 276.932 47.3737C305.526 47.3737 322.167 65.8309 322.167 88.5242V95.1809H252.575C255.298 105.317 264.526 111.218 276.932 111.218ZM276.176 66.1335C265.586 66.1335 256.508 70.9747 253.18 80.3546H297.81C296.751 73.6979 288.884 66.1335 276.176 66.1335Z" fill="white"></path></svg> 